<?xml version="1.0" encoding="UTF-8"?>
<svg xmlns="http://www.w3.org/2000/svg" width="156" height="40" viewBox="0 0 156 40" fill="none">
  <g clip-path="url(#clip0_1780_11858)">
    <path fill-rule="evenodd" clip-rule="evenodd" d="M14.5077 21.5764H8.84397L11.8528 11.7888L14.5077 21.5764ZM6.18911 31.4702L7.95902 25.5056H15.2157L16.9856 31.4702H23.0033L16.6316 8.83301C16.2776 7.34628 15.5696 6.86841 13.9767 6.86841H5.12716V8.90381H5.83513C6.89707 8.90381 7.42805 9.24009 7.42805 10.0543C7.42805 10.5675 7.42805 10.9038 6.89707 12.125L0.525391 31.4702" fill="#143861"></path>
    <path d="M30.6138 31.4702V8.67372C30.6138 7.48788 29.9058 6.86841 28.6669 6.86841H23.1802V8.90381H23.5342C24.5961 8.90381 25.1271 9.34628 25.1271 10.302V31.4702" fill="#143861"></path>
    <path d="M40.5254 31.4702V8.67372C40.5254 7.48788 39.8175 6.86841 38.5785 6.86841H33.0918V8.90381H33.4458C34.5077 8.90381 35.0387 9.34628 35.0387 10.302V31.4702" fill="#143861"></path>
    <path fill-rule="evenodd" clip-rule="evenodd" d="M50.6138 9.0455C50.6138 7.41718 49.3749 6.46143 47.428 6.46143C45.3041 6.46143 44.2421 7.41718 44.2421 9.0455C44.2421 10.7092 45.3041 11.6827 47.428 11.6827C49.3749 11.6827 50.6138 10.7092 50.6138 9.0455ZM50.4368 31.4703V14.8685C50.4368 13.7181 49.7289 13.0455 48.6669 13.0455H43.1802V15.0455H43.5342C44.5961 15.0455 44.9501 15.488 44.9501 16.4968V31.4703" fill="#143861"></path>
    <path fill-rule="evenodd" clip-rule="evenodd" d="M63.5343 22.5321V26.2135C62.4724 27.2755 61.2334 27.8773 60.1715 27.8773C59.1095 27.8773 58.5785 27.364 58.5785 25.9834C58.5785 24.4613 58.9325 23.8773 60.1715 23.3994C61.0564 23.0277 61.9414 22.7976 63.5343 22.5321ZM55.7467 18.125L56.2777 17.9127C57.6936 17.3463 58.5785 17.1339 59.6405 16.9392C60.1715 16.8684 60.8794 16.7976 61.2334 16.7976C63.0033 16.7976 63.5343 17.3817 63.5343 19.01V19.4702C61.0564 19.8773 60.3485 20.0188 58.9325 20.3197C58.2246 20.4967 57.5166 20.7268 56.8086 21.0277C54.5077 21.9481 53.4458 23.718 53.4458 26.4967C53.4458 29.9834 54.8617 31.6472 58.0476 31.6472C59.2865 31.6472 60.5254 31.364 61.4104 30.7976C62.2954 30.3905 62.6493 30.1781 63.7113 29.2047V29.7711C63.7113 30.9215 64.2423 31.4702 65.3042 31.4702H70.6139V29.5764H70.437C69.375 29.5764 68.844 29.0985 68.844 28.1427V19.0985C68.844 14.3905 67.2511 12.7976 62.6493 12.7976C61.0564 12.7976 59.6405 12.9746 58.2246 13.3109C56.8086 13.6472 56.1007 13.895 54.5077 14.7268" fill="#143861"></path>
    <path fill-rule="evenodd" clip-rule="evenodd" d="M78.9324 31.4702V18.9746C80.1714 17.8242 81.0563 17.3817 82.2952 17.3817C83.5342 17.3817 83.8882 17.9127 83.8882 19.7888V31.4702H89.3749V18.9038C89.3749 16.3197 89.0209 15.2047 88.313 14.2312C87.428 13.2755 86.366 12.833 84.7731 12.833C82.6492 12.833 81.0563 13.6118 78.5784 15.7534V14.7622C78.5784 13.6118 78.0475 13.0454 76.9855 13.0454H71.6758V15.0454H71.8528C72.9147 15.0454 73.4457 15.4879 73.4457 16.4967V31.4702" fill="#143861"></path>
    <mask id="mask0_1780_11858" style="mask-type:luminance" maskUnits="userSpaceOnUse" x="0" y="0" width="156" height="40">
      <path d="M0.526367 -6.10352e-05H155.04V40H0.526367V-6.10352e-05Z" fill="white"></path>
    </mask>
    <g mask="url(#mask0_1780_11858)">
      <path d="M106.367 27.9469H98.2258L106.013 16.8318V13.0442H94.3318C92.9159 13.0442 92.385 13.6106 92.385 14.9734V18.3186H94.3318V17.9468C94.3318 16.938 94.8628 16.5309 95.9248 16.5309H100.173L92.208 27.6459V31.469H106.367" fill="#143861"></path>
      <path fill-rule="evenodd" clip-rule="evenodd" d="M137.694 30.4602V9.61055C137.694 7.92913 136.986 7.38044 135.394 7.38044H130.615V9.68141H131.146C132.031 9.68141 132.385 10.0176 132.385 11.0442V30.4602H137.694ZM140.526 30.4602H145.659V14.7256C145.659 13.1327 144.951 12.4955 143.358 12.4955H140.526V30.4602ZM129.553 30.4602V12.4955H126.721C125.128 12.4955 124.42 13.1327 124.42 14.7256V30.4602H129.553ZM151.677 19.9823C151.677 29.7345 144.597 36.8495 135.039 36.8495C125.482 36.8495 118.402 29.7345 118.402 19.9823C118.402 10.2301 125.482 3.115 135.039 3.115C144.597 3.115 151.677 10.2301 151.677 19.9823ZM155.04 19.9823C155.04 8.56638 146.544 -6.10352e-05 135.039 -6.10352e-05C123.712 -6.10352e-05 115.04 8.56638 115.04 19.9823C115.04 31.4336 123.712 40 135.039 40C146.544 40 155.04 31.4336 155.04 19.9823Z" fill="#143861"></path>
    </g>
  </g>
  <defs>
    <clipPath id="clip0_1780_11858">
      <rect width="154.514" height="40" fill="white" transform="translate(0.525391)"></rect>
    </clipPath>
  </defs>
</svg>
