<?xml version="1.0" encoding="UTF-8"?>
<svg xmlns="http://www.w3.org/2000/svg" width="202" height="40" viewBox="0 0 202 40" fill="none">
  <g clip-path="url(#clip0_1780_11838)">
    <path d="M13.4624 11.436H16.3946V8.49658H13.4624V11.436Z" fill="#F37321"></path>
    <path d="M12.0811 2.98216C12.8442 2.98216 13.4626 3.60217 13.4626 4.36732V8.49603H16.3944V4.32458C16.3944 1.94599 14.453 0 12.0811 0V2.98216Z" fill="#F37321"></path>
    <path d="M19.3633 11.4355C20.1148 11.4355 20.7238 12.0381 20.7416 12.7873H23.7179C23.6996 10.4242 21.7671 8.49609 19.4059 8.49609H16.3945V11.4355H19.3633Z" fill="#FAA21B"></path>
    <path d="M20.7416 12.7876C20.7416 12.7989 20.7449 12.8097 20.7449 12.8209C20.7449 13.5861 20.1265 14.2061 19.3633 14.2061H16.3945V17.0788H19.4055C21.7666 17.0788 23.6991 15.1507 23.7179 12.7876H20.7416Z" fill="#F37321"></path>
    <path d="M13.4624 17.0785H16.3946V14.2058H13.4624V17.0785Z" fill="#F37321"></path>
    <path d="M13.4631 26.2604C13.4631 27.0256 12.8447 27.6456 12.0815 27.6456V30.6277C14.4539 30.6277 16.3949 28.6818 16.3949 26.3032V17.0786H13.4631V26.2604Z" fill="#FAA21B"></path>
    <path d="M7.76758 11.4355H10.6993V8.49609H7.76758V11.4355Z" fill="#F37321"></path>
    <path d="M10.6993 4.36732C10.6993 3.60217 11.3177 2.98216 12.0809 2.98216V0C9.7085 0 7.76758 1.94599 7.76758 4.32458V8.49603H10.6993V4.36732Z" fill="#FAA21B"></path>
    <path d="M4.79888 11.4355H7.76766V8.49609H4.75625C2.3951 8.49609 0.462607 10.4242 0.444336 12.7873H3.42061C3.43841 12.0381 4.04744 11.4355 4.79888 11.4355Z" fill="#F37321"></path>
    <path d="M4.79888 14.2061C4.03572 14.2061 3.41733 13.5861 3.41733 12.8209C3.41733 12.8097 3.42014 12.7989 3.42061 12.7876H0.444336C0.462607 15.1507 2.3951 17.0788 4.75625 17.0788H7.76766V14.2061H4.79888Z" fill="#FAA21B"></path>
    <path d="M7.76758 17.079H10.6993V14.2063H7.76758V17.079Z" fill="#F37321"></path>
    <path d="M10.6993 26.2604V17.0786H7.76758V26.3032C7.76758 28.6818 9.7085 30.6277 12.0809 30.6277V27.6456C11.3177 27.6456 10.6993 27.0256 10.6993 26.2604Z" fill="#F37321"></path>
    <path d="M64.1825 23.6991L64.0106 23.5563C62.5925 22.3801 60.9598 21.7831 59.1576 21.7831C58.7519 21.7831 58.3302 21.8137 57.9044 21.8728C55.1862 22.2528 53.1769 23.6831 51.9322 26.1227C51.214 27.5295 50.7764 30.0218 50.9563 31.6784C51.1816 33.7644 51.9668 35.5201 53.2889 36.8978C54.7735 38.4436 56.9655 39.3299 59.3037 39.3299C59.917 39.3299 60.5298 39.2693 61.1271 39.1496C62.1142 38.9523 63.0928 38.5056 64.0349 37.8217L64.2106 37.6827V39.3107H69.2796V22.1594H64.1825V23.6991ZM62.4997 34.1345C61.8101 34.6794 60.9861 34.9682 60.1175 34.9682L60.0271 34.9668C57.7859 34.9668 56.1434 33.4173 55.9396 31.111C55.8473 30.0669 55.9888 29.1763 56.3724 28.3886C57.1066 26.8818 58.3321 26.1176 60.0158 26.1176L60.0978 26.1185C62.1343 26.1486 63.8302 27.654 64.1305 29.6981C64.394 31.4872 63.9031 32.9307 62.6722 33.9921L62.4997 34.1345ZM112.649 21.8055C110.266 21.8055 108.396 22.8826 106.934 25.0986L106.717 25.373V22.1597H101.594V39.3143H106.717V33.5073C106.732 30.156 108.48 27.3039 112.004 27.1484C112.177 27.1409 112.376 27.1384 112.583 27.1383L113.793 27.1494L113.793 21.8844C113.4 21.8318 113.016 21.8055 112.649 21.8055ZM81.2112 34.1103C80.3754 34.5373 78.8416 34.9309 77.8419 34.5589C77.4601 34.4128 77.1448 34.1582 76.9016 33.7928C76.5804 33.3117 76.522 32.7629 76.5109 32.192L76.5058 26.2028H81.2187V22.1596H76.4884L76.488 17.2253H71.367L71.366 18.0022L71.374 31.6771L71.3815 32.4081C71.3984 33.3724 71.4743 34.1343 71.619 34.806C72.0289 36.7054 73.1027 38.0197 74.8117 38.712C75.7543 39.0939 76.7667 39.2874 77.8217 39.2874C78.4701 39.2874 79.1532 39.2141 79.8535 39.0704C80.6631 38.9041 81.6071 38.5194 82.5295 38.0145L81.2112 34.1103ZM44.1796 39.3179H49.2533L49.2449 29.0135C49.2434 28.4358 49.206 27.8402 49.1357 27.2436C48.7693 24.161 46.2526 21.8787 43.1513 21.8176L42.9653 21.8157C41.1448 21.8157 39.6236 22.331 38.3151 23.3916C38.1178 23.5519 37.9275 23.7273 37.7423 23.9051L37.2761 24.3596L36.9917 24.6307L36.9228 24.5264C35.8327 22.8707 34.2051 21.9637 32.0857 21.8298C31.8946 21.8176 31.7058 21.8115 31.5189 21.8115C29.6037 21.8115 28.0465 22.4583 26.7591 23.789L26.5787 23.9754V22.1877H21.4858L21.4863 39.3104H26.5801L26.5806 30.9966C26.5815 30.2314 26.6335 29.23 27.0261 28.2676C27.4923 27.1276 28.6072 26.3907 29.867 26.3907C30.6241 26.3907 31.3357 26.6734 31.8698 27.1863C32.4942 27.7866 32.7978 28.5983 32.7983 29.6678L32.7992 39.3179H37.9169L37.924 31.0144C37.9296 30.3019 37.9849 29.6932 38.0945 29.1535C38.4393 27.4508 39.5585 26.4494 41.1645 26.4066L41.2511 26.4057C42.3802 26.4057 43.3438 27.0069 43.8278 28.0144C44.0976 28.5777 44.1617 29.1591 44.1736 29.6742L44.1796 39.3179ZM98.8864 26.0079C97.9035 24.2296 96.2343 22.8426 94.3069 22.2028C93.4398 21.9149 92.5192 21.7688 91.5701 21.7688C91.155 21.7688 90.7254 21.797 90.293 21.8515C88.0574 22.1356 86.0818 23.1995 84.7312 24.8454C82.9523 27.0135 82.3625 29.6326 82.979 32.6284C83.4798 35.0638 84.8787 36.9544 87.1354 38.247C88.1993 38.8567 89.4197 39.208 90.7629 39.2907C91.0449 39.3081 91.3241 39.317 91.594 39.317C93.4145 39.317 94.9722 38.9225 96.3556 38.1103C97.8262 37.2461 98.8929 35.991 99.612 34.2757L97.8641 33.9027L95.9776 33.5143L95.0902 33.3029L95.0335 33.4049L94.9731 33.5053C94.9202 33.5913 94.8659 33.6726 94.8101 33.7505L94.7039 33.8898L94.6597 33.9459C94.6307 33.9807 94.603 34.0131 94.5763 34.0441C93.7068 35.0356 92.5614 35.2644 91.6975 35.2644C91.4094 35.2644 91.11 35.2395 90.8088 35.1892C89.2656 34.9351 88.1099 33.689 87.7918 31.9379L87.7697 31.8139H100.02C100.112 29.5209 99.8019 27.7899 99.0209 26.2609L98.8864 26.0079ZM87.8906 28.7345L87.9154 28.6087C88.1675 27.3395 89.4851 26.0172 91.2848 25.9066L91.526 25.8989C93.2098 25.8989 94.6115 27.0131 94.9347 28.6082L94.9605 28.7345H87.8906ZM121.633 30.5644V30.8979H124.025V31.9636H121.633V39.2267H120.537V31.9636H119.125V30.8979H120.537V30.5644C120.537 28.399 121.783 27.1994 124.025 27.3661V28.4324C122.414 28.299 121.633 28.965 121.633 30.5644ZM124.209 35.0621C124.209 32.5966 126.152 30.6976 128.578 30.6976C131.005 30.6976 132.948 32.5966 132.948 35.0621C132.948 37.5276 131.005 39.4266 128.578 39.4266C126.152 39.4266 124.209 37.5276 124.209 35.0621ZM131.851 35.0621C131.851 33.2134 130.423 31.7639 128.578 31.7639C126.735 31.7639 125.306 33.2134 125.306 35.0621C125.306 36.9114 126.735 38.3604 128.578 38.3604C130.423 38.3604 131.851 36.9114 131.851 35.0621ZM141.737 30.8976V39.2264H140.64V37.9272C139.992 38.9765 139.029 39.4265 137.849 39.4265C135.822 39.4265 134.593 38.0939 134.593 36.0117V30.8976H135.689V36.0117C135.689 37.4941 136.503 38.3603 137.949 38.3603C139.411 38.3603 140.64 37.4941 140.64 35.2621V30.8976H141.737ZM151.224 34.1126V39.2268H150.128V34.1126C150.128 32.6302 149.314 31.7641 147.868 31.7641C146.406 31.7641 145.177 32.6302 145.177 34.8623V39.2268H144.08V30.8975H145.177V32.1972C145.824 31.1474 146.788 30.6979 147.968 30.6979C149.995 30.6979 151.224 32.0304 151.224 34.1126ZM161.608 27.5661V39.2265H160.511V37.5943C159.814 38.7103 158.634 39.4266 157.155 39.4266C154.813 39.4266 152.87 37.5276 152.87 35.0621C152.87 32.5966 154.813 30.6976 157.155 30.6976C158.634 30.6976 159.814 31.4139 160.511 32.5304V27.5661H161.608ZM160.511 35.0621C160.511 33.2134 159.083 31.7639 157.239 31.7639C155.394 31.7639 153.966 33.2134 153.966 35.0621C153.966 36.9114 155.394 38.3604 157.239 38.3604C159.023 38.3604 160.419 37.0033 160.507 35.2398L160.511 35.0621ZM172.192 30.8976V39.2264H171.095V37.5942C170.398 38.7102 169.218 39.4265 167.739 39.4265C165.397 39.4265 163.453 37.5275 163.453 35.062C163.453 32.5965 165.397 30.6975 167.739 30.6975C169.218 30.6975 170.398 31.4138 171.095 32.5303V30.8976H172.192ZM171.095 35.062C171.095 33.2132 169.666 31.7637 167.822 31.7637C165.978 31.7637 164.549 33.2132 164.549 35.062C164.549 36.9112 165.978 38.3603 167.822 38.3603C169.606 38.3603 171.003 37.0032 171.091 35.2397L171.095 35.062ZM176.545 31.9639V37.0108C176.545 38.0345 176.943 38.2673 177.758 38.2924L178.015 38.2943L178.297 38.2873L178.937 38.2603V39.2264C176.694 39.5599 175.448 39.0104 175.448 37.0108V31.9639H173.704V30.8976H175.448V28.8986L176.545 28.5655V30.8976H178.937V31.9639H176.545ZM180.532 28.3323C180.532 27.8993 180.881 27.5329 181.33 27.5329C181.778 27.5329 182.128 27.8993 182.128 28.3323C182.128 28.7654 181.778 29.1318 181.33 29.1318C180.916 29.1318 180.587 28.8196 180.538 28.4309L180.532 28.3323ZM180.782 39.2267H181.878V30.8979H180.782V39.2267ZM183.722 35.0621C183.722 32.5966 185.666 30.6976 188.092 30.6976C190.518 30.6976 192.462 32.5966 192.462 35.0621C192.462 37.5276 190.518 39.4266 188.092 39.4266C185.666 39.4266 183.722 37.5276 183.722 35.0621ZM191.364 35.0621C191.364 33.2134 189.936 31.7639 188.092 31.7639C186.248 31.7639 184.819 33.2134 184.819 35.0621C184.819 36.9114 186.248 38.3604 188.092 38.3604C189.936 38.3604 191.364 36.9114 191.364 35.0621ZM201.45 34.1126V39.2268H200.353V34.1126C200.353 32.6302 199.539 31.7641 198.094 31.7641C196.631 31.7641 195.402 32.6302 195.402 34.8623V39.2268H194.305V30.8975H195.402V32.1972C196.051 31.1474 197.014 30.6979 198.193 30.6979C200.22 30.6979 201.45 32.0304 201.45 34.1126Z" fill="#173274"></path>
  </g>
  <defs>
    <clipPath id="clip0_1780_11838">
      <rect width="201.081" height="40" fill="white" transform="translate(0.444336)"></rect>
    </clipPath>
  </defs>
</svg>
