<?xml version="1.0" encoding="UTF-8"?>
<svg xmlns="http://www.w3.org/2000/svg" width="73" height="40" viewBox="0 0 73 40" fill="none">
  <path d="M30.9924 1.93524C31.8213 1.93524 32.4966 2.60079 32.5171 3.44042V3.4609C32.5171 4.04454 32.1896 4.49507 31.6985 4.82273C31.7496 4.89441 31.8213 4.9456 31.8827 5.01728C31.9748 5.12991 32.0668 5.21183 32.1589 5.30398C32.3022 5.44733 32.4454 5.59068 32.6092 5.70331L32.7217 5.79547C32.8854 5.9081 33.0492 6.01049 33.2333 6.10265C33.305 6.14361 33.3971 6.17432 33.4687 6.21528C33.5403 6.25624 33.6529 6.28696 33.745 6.30744C33.9291 6.35863 34.1236 6.37911 34.3282 6.39959C34.3794 6.39959 34.4203 6.42007 34.4715 6.42007V7.36209C34.4715 8.09932 35.2082 8.49866 36.078 8.49866C36.9477 8.49866 37.6844 8.09932 37.6844 7.36209V6.39959C37.7356 6.39959 37.7765 6.39959 37.8277 6.37911C38.0221 6.35863 38.2063 6.32791 38.4109 6.28696C38.503 6.26648 38.5951 6.23576 38.6872 6.1948C38.7793 6.15385 38.8509 6.12313 38.9226 6.08217C39.1067 5.99002 39.2705 5.89786 39.4342 5.77499L39.5467 5.68284C39.7105 5.55996 39.8537 5.42685 39.997 5.2835C40.0891 5.19135 40.1812 5.09919 40.2732 4.9968C40.3244 4.92512 40.396 4.87393 40.4574 4.80225C39.9867 4.47459 39.6388 4.02406 39.6388 3.44042C39.6184 2.61103 40.2937 1.91476 41.1225 1.91476H41.143C41.5421 1.93524 41.9411 2.07859 42.2686 2.31409C42.3914 2.12978 42.5039 1.95571 42.6267 1.77141C42.1969 1.46423 41.6853 1.3004 41.1635 1.27992C39.9663 1.25944 38.9942 2.22194 38.9737 3.39946V3.44042C38.9942 3.9831 39.2091 4.50531 39.5672 4.90465C39.1681 5.30398 38.5747 5.84667 37.664 5.82619V1.13657C37.664 0.399334 36.9272 0 36.0575 0C35.1877 0 34.451 0.399334 34.451 1.13657V5.82619C33.5505 5.84667 32.9468 5.30398 32.5478 4.90465C32.9264 4.50531 33.131 3.9831 33.1413 3.44042C33.1413 2.24242 32.1794 1.29016 30.9924 1.29016C30.972 1.29016 30.972 1.29016 30.9515 1.29016C30.4297 1.31064 29.918 1.47447 29.4883 1.78165C29.6111 1.96595 29.7236 2.14002 29.8464 2.32433C30.2148 2.09907 30.5934 1.95571 30.9924 1.93524ZM36.0575 0.511967C36.4054 0.491489 36.7226 0.583643 36.9989 0.798669L36.0575 1.69973L35.1161 0.798669C35.3924 0.583643 35.7198 0.491489 36.0575 0.511967ZM34.9319 1.198L36.0575 2.2629L37.1831 1.17752V1.198V1.95571L36.0575 3.04109L34.9319 1.95571V1.198ZM34.9319 2.53936L36.0575 3.62473L37.1831 2.53936V3.31755L36.0575 4.40292L34.9319 3.31755V2.53936ZM34.9319 3.87047L36.0575 4.95584L37.1831 3.87047V4.64866L36.0575 5.73403L34.9319 4.64866V3.87047ZM34.9319 5.21183L36.0575 6.2972L37.1831 5.21183V5.99002L36.0575 7.07539L34.9319 5.99002V5.21183ZM34.9319 6.55318L36.0575 7.63855L37.1831 6.55318V7.31089C37.1831 7.74094 36.7328 7.99693 36.0575 7.99693C35.3822 7.99693 34.9319 7.72047 34.9319 7.31089V6.55318Z" fill="#000E82"></path>
  <path d="M15.2858 14.9698H13.4031C12.9529 14.9698 12.8096 15.1132 12.8096 15.5535V22.977L6.2097 15.318C5.97435 15.062 5.85156 14.9698 5.41157 14.9698H0.633031C0.213502 14.9698 0.0395508 15.1644 0.0395508 15.5535V28.6291C0.0395508 29.008 0.233967 29.2127 0.633031 29.2127H2.53626C2.95579 29.2127 3.11951 29.0182 3.11951 28.6291V20.1919L10.4868 28.7725C10.7427 29.0592 10.8654 29.2025 11.4282 29.2025H15.3165C15.7668 29.2025 15.8998 29.0592 15.8998 28.6189V15.5535C15.8691 15.1132 15.7565 14.9698 15.2858 14.9698ZM67.3893 15.4203C67.3177 15.1336 67.0414 14.9289 66.7344 14.9698H61.0043C60.6461 14.9698 60.4108 15.0825 60.2982 15.4203L55.4992 28.6905C55.3867 29.0387 55.4788 29.2025 55.8267 29.2025H57.9652C58.3234 29.2025 58.4769 29.1615 58.6201 28.7725L59.5206 26.2536H65.1791L66.0284 28.496C66.2637 29.1104 66.4274 29.2025 66.9288 29.2025H71.8506C72.3725 29.2025 72.5055 29.0387 72.3008 28.4755L67.3893 15.4203ZM60.4415 23.7552L62.3242 18.5433L64.2786 23.7552H60.4415ZM54.2611 14.9698H48.2751C47.7328 14.9698 47.6203 15.1644 47.4463 15.5637L44.6017 22.4855L41.6752 15.5739C41.4911 15.1439 41.3273 14.9801 40.7748 14.9801H35.147C34.6967 14.9801 34.5535 15.1234 34.5535 15.5637V28.6393C34.5535 29.0694 34.6967 29.223 35.147 29.223H37.0297C37.4799 29.223 37.6232 29.0796 37.6232 28.6393V20.2021L41.2455 28.6189C41.5013 29.1411 41.5934 29.2127 41.9822 29.2127H44.5096C45.0315 29.2127 45.1645 29.1001 45.3589 28.6496L48.797 20.2328V28.6496C48.797 29.0796 48.9403 29.2332 49.3905 29.2332H54.2918C54.742 29.2332 54.8341 29.0899 54.8341 28.6496V15.5535C54.8341 15.1132 54.7113 14.9698 54.2611 14.9698ZM23.4308 28.6189V22.3729L27.4113 28.6905C27.6875 29.1104 27.8103 29.2025 28.2605 29.2025H33.3665C33.7963 29.2025 33.9088 28.8748 33.6735 28.496L29.908 22.6288C31.9544 22.0657 33.5302 21.0315 33.5302 18.6457C33.5302 16.4033 31.934 14.9698 29.6624 14.9698H17.9974C17.5472 14.9698 17.404 15.1132 17.404 15.5535V28.6291C17.404 29.0592 17.5472 29.2127 17.9974 29.2127H22.8783C23.2876 29.182 23.4308 29.0387 23.4308 28.6189ZM23.4308 16.731H25.3341C26.695 16.731 27.575 17.4682 27.575 19.0656C27.575 20.6629 26.6848 21.3592 25.3341 21.3592H23.4308V16.731Z" fill="#000E82"></path>
  <path d="M46.6379 3.49174C47.9374 3.49174 49.1141 3.09241 49.1141 2.5702C49.1141 2.40637 48.8788 2.47805 48.7662 2.519C48.3467 2.63164 47.3337 2.91834 46.2695 2.68283C46.157 2.89786 45.9421 3.15384 45.3077 3.29719C45.7374 3.42007 46.1877 3.49174 46.6379 3.49174ZM27.8102 4.95597C27.4112 5.14028 26.9814 5.23243 26.5414 5.23243C26.0503 5.21195 25.5693 5.18123 25.0782 5.08908C24.9861 5.08908 24.9656 5.13004 24.9656 5.18123C24.9656 5.43722 25.6921 6.00038 27.0326 6.00038C27.7182 6.00038 28.3219 5.85703 28.7721 5.52937C28.4242 5.44746 27.9944 5.23243 27.8102 4.95597ZM49.462 3.5327C51.2936 3.5327 52.808 2.64188 52.808 2.11967C52.808 2.04799 52.7569 1.97632 52.6852 1.97632C52.6648 1.97632 52.6443 1.97632 52.6341 1.97632C52.2145 2.06847 51.4778 2.64188 49.5746 2.64188C49.5234 3.04121 49.2676 3.27672 48.6332 3.47126C48.9197 3.51222 49.196 3.5327 49.462 3.5327ZM42.5858 2.6214C43.0975 2.9081 43.6705 3.04121 44.2537 3.02073C44.9598 3.02073 45.85 2.82618 45.85 2.50876C45.85 2.36541 45.5942 2.39613 45.1132 2.41661C44.3867 2.46781 43.6705 2.32446 43.0156 2.01728C42.8621 2.19134 42.7393 2.40637 42.5858 2.6214C42.5858 2.61116 42.5858 2.61116 42.5858 2.6214ZM31.0335 4.68974C30.8902 4.50544 30.7469 4.31089 30.5423 4.0549C30 4.40304 29.5088 4.59759 28.4447 4.56687C28.2502 4.56687 28.1581 4.56687 28.1581 4.6795C28.1581 4.84333 28.7516 5.20171 29.4986 5.20171C30.0307 5.18123 30.573 5.0174 31.0335 4.68974ZM40.2222 3.47126C40.2426 3.85012 40.437 4.17778 40.7645 4.36209C40.877 4.19826 41.0203 4.03443 41.1635 3.83988C40.877 3.67605 40.744 3.42007 40.9282 3.22552C41.1124 3.03097 41.3273 3.10265 41.5831 3.29719C41.6956 3.13336 41.8184 2.96953 41.9412 2.78523C41.7468 2.6214 41.491 2.50876 41.2147 2.50876C40.6928 2.48829 40.2529 2.88762 40.2426 3.40983C40.2222 3.44054 40.2222 3.46102 40.2222 3.47126ZM49.0118 7.02431C49.0118 6.93216 48.9197 6.86049 48.7253 6.90144C48.0193 7.01408 47.2928 6.95264 46.6072 6.71713C46.4128 7.07551 46.0649 7.2803 45.6146 7.40317C46.1058 7.58748 46.6276 7.67963 47.1495 7.67963C48.2751 7.67963 49.0118 7.2803 49.0118 7.02431ZM43.6705 4.54639C42.6063 4.59759 42.1152 4.38256 41.5728 4.03443C41.3887 4.29041 41.2249 4.50544 41.0817 4.66927C41.5319 4.99692 42.0538 5.16075 42.6165 5.18123C43.3533 5.18123 43.957 4.82286 43.957 4.65903C43.9672 4.54639 43.8751 4.54639 43.6705 4.54639ZM44.2742 7.18814C45.4305 7.18814 46.0444 6.73761 46.0444 6.53283C46.0444 6.44067 45.9932 6.42019 45.9011 6.42019C45.7579 6.42019 45.2463 6.47139 44.9086 6.47139C44.3458 6.47139 43.783 6.34852 43.2816 6.09253C42.9747 6.44067 42.7189 6.51235 42.2891 6.58402C42.8826 6.97312 43.5682 7.18814 44.2742 7.18814ZM45.0723 5.99014C46.4128 5.99014 47.1393 5.42698 47.1393 5.17099C47.1393 5.1198 47.0983 5.07884 47.0267 5.07884C46.5356 5.17099 46.0546 5.20171 45.5635 5.22219C45.1337 5.22219 44.6937 5.13004 44.2947 4.94573C44.1105 5.22219 43.6807 5.41674 43.3328 5.50889C43.783 5.86727 44.397 5.99014 45.0723 5.99014ZM39.1375 6.50211C38.9431 6.61474 38.718 6.68642 38.5031 6.75809C38.7896 7.34173 39.2296 7.73083 39.8436 7.81274C40.1915 7.8537 40.4984 7.70011 40.4984 7.55676C40.4984 7.46461 40.2222 7.43389 40.0687 7.36221C39.6594 7.16767 39.3319 6.88096 39.1375 6.50211ZM41.6649 6.73761C41.6649 6.64546 41.4807 6.64546 41.3375 6.62498C40.8156 6.57378 40.3449 6.29732 40.038 5.89799C39.8743 6.04134 39.6901 6.18469 39.5161 6.29732C39.7924 6.71713 40.1812 7.00384 40.6519 7.11647C41.2556 7.21886 41.6649 6.90144 41.6649 6.73761ZM50.5671 5.51913C50.5671 5.44746 50.516 5.37578 50.4443 5.37578H50.4239C50.076 5.37578 49.769 5.63176 48.7048 5.63176C48.3262 5.61129 47.9681 5.56009 47.5997 5.44746C47.4565 5.84679 47.0165 6.10277 46.5867 6.22565C47.0983 6.369 47.6202 6.44067 48.142 6.44067C49.595 6.44067 50.5671 5.86727 50.5671 5.51913ZM44.5812 3.42007C43.6193 3.47126 43.0463 3.36887 42.3198 2.99001C42.1765 3.20504 42.0128 3.42007 41.8696 3.62485C42.3607 3.95251 42.9337 4.13682 43.517 4.11634C44.2537 4.11634 44.9598 3.80916 44.9598 3.57366C45.0007 3.46102 44.837 3.39959 44.5812 3.42007ZM24.5154 5.44746C24.1573 5.56009 23.7787 5.61129 23.4103 5.63176C22.3257 5.63176 22.0187 5.37578 21.6913 5.37578C21.6196 5.37578 21.548 5.42698 21.548 5.49865V5.51913C21.548 5.86727 22.5201 6.44067 23.9731 6.44067C24.4949 6.44067 25.027 6.369 25.5284 6.22565C25.0987 6.10277 24.6587 5.84679 24.5154 5.44746ZM41.7979 6.20517C42.4835 6.20517 42.9747 5.89799 42.9747 5.73416C42.9747 5.62152 42.8621 5.62152 42.6984 5.642C42.0128 5.6932 41.3375 5.51913 40.7849 5.1198L40.7338 5.19147C40.611 5.33482 40.478 5.47817 40.3552 5.61128C40.7849 5.96966 41.2352 6.20517 41.7979 6.20517ZM44.5812 7.68987C44.5812 7.57724 44.2742 7.63868 43.824 7.59772C43.1896 7.55676 42.5756 7.34173 42.0538 6.98336C41.8696 7.27006 41.5626 7.45437 41.2249 7.47485C41.8593 7.87418 42.5858 8.10969 43.3226 8.13016C44.1105 8.15064 44.5812 7.87418 44.5812 7.68987ZM47.9579 3.78868C47.4462 3.90131 46.9449 3.97299 46.423 3.98323C46.0649 3.98323 45.717 3.93203 45.3691 3.83988C45.2258 4.09586 44.8574 4.33137 44.3049 4.43376C44.7551 4.64879 45.2667 4.76142 45.7681 4.76142C46.996 4.76142 48.1523 4.36209 48.1523 3.93203C48.1625 3.83988 48.1216 3.7682 47.9579 3.78868ZM51.9076 3.78868C51.9076 3.69653 51.8666 3.62485 51.7132 3.66581C50.7718 4.06514 49.7383 4.2085 48.7151 4.08562C48.6639 4.444 48.1932 4.81262 47.5588 4.93549C48.009 5.00716 48.449 5.04812 48.8992 5.04812C50.5467 5.03788 51.9076 4.33137 51.9076 3.78868ZM24.9554 7.67963C25.4773 7.67963 26.0093 7.58748 26.4903 7.40317C26.04 7.2803 25.6921 7.09599 25.4977 6.71713C24.8121 6.95264 24.1061 7.00384 23.3796 6.90144C23.1852 6.86049 23.0931 6.9424 23.0931 7.02431C23.1033 7.2803 23.8298 7.67963 24.9554 7.67963ZM22.6326 3.5327C22.9089 3.5327 23.1954 3.51222 23.4615 3.49174C22.8271 3.29719 22.5712 3.06169 22.5201 2.66235C20.6169 2.66235 19.8801 2.06847 19.4606 1.9968C19.389 1.97632 19.3173 2.01728 19.2969 2.08895V2.14015C19.3071 2.6214 20.8215 3.5327 22.6326 3.5327ZM27.5237 3.42007C27.2679 3.39959 27.1247 3.46102 27.1247 3.56342C27.1247 3.79892 27.8512 4.1061 28.5674 4.1061C29.1609 4.12658 29.7442 3.96275 30.2149 3.61461C30.0716 3.42007 29.9284 3.1948 29.7646 2.97977C29.0791 3.36887 28.4958 3.47126 27.5237 3.42007ZM26.7256 3.83988C26.3777 3.93203 26.04 3.98323 25.6717 3.98323C25.1498 3.96275 24.6382 3.89108 24.1368 3.78868C23.9731 3.7682 23.9424 3.83988 23.9424 3.93203C23.9424 4.36209 25.0987 4.76142 26.3265 4.76142C26.8382 4.76142 27.3191 4.64879 27.7898 4.43376C27.227 4.33137 26.8689 4.09586 26.7256 3.83988ZM30.9004 2.519C30.6242 2.53948 30.3786 2.63164 30.1739 2.79547C30.2967 2.97977 30.4093 3.1436 30.5321 3.30743C30.7674 3.11289 31.0232 3.03097 31.1869 3.23576C31.3507 3.43031 31.2279 3.68629 30.9516 3.85012C31.0948 4.04467 31.2279 4.22897 31.3507 4.37232C31.6781 4.18802 31.8725 3.85012 31.893 3.4815C31.9134 2.9593 31.4939 2.519 30.9721 2.519C30.9414 2.519 30.9209 2.519 30.9004 2.519ZM31.7907 5.59081C31.6679 5.46793 31.5348 5.31434 31.4121 5.17099L31.3609 5.09932C30.7981 5.49865 30.133 5.6932 29.4474 5.62152C29.2837 5.60105 29.1609 5.60105 29.1712 5.71368C29.1712 5.89799 29.6623 6.18469 30.3479 6.18469C30.88 6.20517 31.3404 5.96966 31.7907 5.59081ZM25.4773 3.49174C25.9275 3.49174 26.3777 3.42007 26.7972 3.27672C26.1424 3.13336 25.9275 2.87738 25.8354 2.66235C24.7712 2.89786 23.7582 2.61116 23.3387 2.49852C23.2261 2.45757 22.9908 2.38589 22.9908 2.54972C23.001 3.09241 24.1777 3.49174 25.4773 3.49174ZM29.8158 6.59426C29.386 6.52259 29.1302 6.45091 28.8233 6.10277C28.3116 6.35876 27.7591 6.48163 27.1963 6.48163C26.8484 6.50211 26.347 6.43043 26.2038 6.43043C26.1117 6.43043 26.0605 6.45091 26.0605 6.54307C26.0605 6.73761 26.654 7.19838 27.8307 7.19838C28.5367 7.18814 29.2223 6.97312 29.8158 6.59426ZM23.4103 4.07538C22.3973 4.19826 21.3434 4.0549 20.4122 3.65557C20.2485 3.61461 20.2178 3.69653 20.2178 3.77844C20.2178 4.32113 21.5787 5.02764 23.2159 5.02764C23.6661 5.02764 24.1163 4.98669 24.5563 4.91501C23.9424 4.7819 23.4717 4.43376 23.4103 4.07538ZM32.2818 7.78203C32.8958 7.71035 33.3153 7.31102 33.6223 6.72737C33.4074 6.67618 33.1925 6.58402 32.9878 6.47139C32.7934 6.85025 32.466 7.13695 32.0669 7.30078C31.9032 7.39293 31.6372 7.42365 31.6372 7.49532C31.6065 7.67963 31.9339 7.82298 32.2818 7.78203ZM27.8614 3.00025C28.4447 3.04121 29.0177 2.88762 29.5293 2.60092C29.386 2.40637 29.253 2.18111 29.1098 1.98656C28.4651 2.31422 27.7386 2.45757 27.0121 2.38589C26.521 2.36541 26.2754 2.34493 26.2754 2.47805C26.2754 2.8057 27.1554 3.00025 27.8614 3.00025ZM31.4427 7.11647C31.9134 6.9936 32.3125 6.69666 32.5785 6.29732C32.3944 6.17445 32.2204 6.04134 32.0567 5.89799C31.7497 6.3178 31.2586 6.58402 30.7572 6.62498C30.6139 6.64546 30.4297 6.64546 30.4297 6.73761C30.4297 6.90144 30.8697 7.21886 31.4427 7.11647ZM30.0716 7.00384C29.5498 7.36221 28.9358 7.567 28.3014 7.6182C27.8512 7.65915 27.5442 7.59772 27.5442 7.71035C27.5442 7.89466 28.0149 8.1404 28.8335 8.1404C29.5702 8.11992 30.2967 7.88442 30.9311 7.48509C30.5628 7.47485 30.2558 7.30078 30.0716 7.00384Z" fill="#000E82"></path>
  <path d="M52.235 11.8571C51.8564 11.4987 51.4778 11.1506 51.0788 10.8229H44.7859C45.1849 11.1506 45.584 11.4885 45.9421 11.8571H52.235ZM50.0658 10.0857C49.5439 9.70683 48.9811 9.37917 48.3979 9.07199H41.8696C42.5245 9.35869 43.1384 9.70683 43.7319 10.0857H50.0658ZM47.4974 13.649H53.8518C53.5755 13.2906 53.2685 12.9425 52.9615 12.6148H46.6584C46.9449 12.9425 47.2212 13.2906 47.4974 13.649ZM24.495 30.4825H18.1509C18.3351 30.8408 18.509 31.2095 18.7341 31.5473H25.1703C24.935 31.2095 24.6996 30.8511 24.495 30.4825ZM27.841 34.6089H21.1694C21.5685 34.9878 21.9676 35.3461 22.3973 35.6738H29.2019C28.7107 35.3564 28.281 34.998 27.841 34.6089ZM31.013 39.5238C34.359 40.1586 37.7766 40.1586 41.1226 39.5238C42.1357 39.3293 43.1282 39.0528 44.1105 38.7046H28.0252C29.0075 39.0528 30 39.319 31.013 39.5238ZM30.8084 36.6568H23.7787C24.3927 37.0561 25.0271 37.394 25.6819 37.7217H33.6939C32.6707 37.5066 31.7191 37.1483 30.8084 36.6568ZM25.907 32.5508H19.3788C19.655 32.9092 19.9211 33.2778 20.2281 33.6157H26.828C26.5108 33.2778 26.2038 32.9297 25.907 32.5508ZM25.4568 12.6148H19.1639C18.8569 12.9425 18.5704 13.2804 18.2737 13.649H24.628C24.894 13.2906 25.1703 12.9425 25.4568 12.6148ZM38.4418 37.7422H46.4537C47.1086 37.4145 47.743 37.0766 48.357 36.6773H41.3171C40.3961 37.1483 39.4445 37.5067 38.4418 37.7422ZM46.9449 31.5576H53.3811C53.596 31.2095 53.7801 30.8511 53.9643 30.4927H47.61C47.4156 30.8511 47.1802 31.2095 46.9449 31.5576ZM45.2872 33.6157H51.8871C52.1941 33.2676 52.4704 32.9092 52.7364 32.5508H46.2082C45.9216 32.9297 45.6147 33.2778 45.2872 33.6157ZM42.9338 35.684H49.7383C50.1681 35.3359 50.5672 34.998 50.9662 34.6192H44.2947C43.8547 34.998 43.4045 35.3564 42.9338 35.684ZM26.1833 11.8571C26.5415 11.4987 26.9405 11.1506 27.3396 10.8229H21.0569C20.6578 11.1506 20.2792 11.4885 19.9006 11.8571H26.1833ZM30.2354 9.05151H23.7071C23.1238 9.35869 22.5815 9.70683 22.0392 10.0652H28.3731C28.9665 9.68635 29.6009 9.33822 30.2354 9.05151Z" fill="#000E82"></path>
</svg>
