<?xml version="1.0" encoding="UTF-8"?>
<svg xmlns="http://www.w3.org/2000/svg" width="174" height="40" viewBox="0 0 174 40" fill="none">
  <g clip-path="url(#clip0_1780_11881)">
    <path fill-rule="evenodd" clip-rule="evenodd" d="M47.448 36.6618L20.232 9.14418C16.6105 5.49844 11.6889 3.3335 6.56738 3.3335H0.880859L1.30585 4.4443L3.2008 9.42918L13.4989 36.6618H47.448Z" fill="url(#paint0_linear_1780_11881)"></path>
    <path fill-rule="evenodd" clip-rule="evenodd" d="M17.762 26.3379C17.8187 26.7354 18.1312 27.0762 18.5287 27.1329C24.1677 28.0137 29.6384 30.3411 34.3999 34.176C34.4283 34.2043 34.4566 34.2043 34.5141 34.2043C34.5433 34.2043 34.5999 34.176 34.6283 34.1477C34.6849 34.091 34.6849 33.9769 34.6283 33.9202C31.34 30.4561 27.2868 27.6728 22.7802 25.8554L21.3903 25.2871C20.6819 25.0037 20.2003 24.2929 20.2003 23.4979C20.2853 20.5447 27.2584 21.1397 27.9668 19.7214L28.0793 19.4655C26.6335 18.2431 24.9327 17.3073 23.0627 16.7948C23.0335 16.8806 23.0044 17.2198 23.3735 17.8448C23.7985 18.5281 22.9202 19.6064 21.6444 18.4422L21.5311 18.3572C12.1222 9.66663 5.03649 14.1665 1.29492 4.42676L3.19321 9.3933C6.90645 15.7548 16.6845 16.4265 17.762 26.3379Z" fill="white"></path>
    <path fill-rule="evenodd" clip-rule="evenodd" d="M23.3701 17.8331C23.5093 18.0564 23.5085 18.3473 23.3951 18.5706C23.2768 18.8006 23.0385 18.9597 22.7227 18.9597V21.283C23.7426 20.9997 24.9059 20.7997 25.8684 20.6014V19.2947C25.8684 19.2947 24.3051 19.3956 23.3701 17.8331Z" fill="url(#paint1_linear_1780_11881)"></path>
    <path fill-rule="evenodd" clip-rule="evenodd" d="M19.6602 27.3329C24.8767 28.3245 29.9499 30.5978 34.3715 34.1477C24.48 25.7129 20.001 27.2179 19.661 27.3312L19.6602 27.3329Z" fill="url(#paint2_linear_1780_11881)"></path>
    <path fill-rule="evenodd" clip-rule="evenodd" d="M1.29395 4.44189L3.1939 9.41177C6.9063 15.7733 16.6852 16.4549 17.7619 26.3663C16.6569 13.7 11.1287 15.5749 5.17718 9.83843C3.64639 8.73012 2.34392 7.14016 1.29395 4.44189Z" fill="url(#paint3_linear_1780_11881)"></path>
    <path fill-rule="evenodd" clip-rule="evenodd" d="M40.1913 22.3688C40.1913 17.8023 44.8078 14.2832 51.6576 14.2832C58.4783 14.2832 63.124 17.8023 63.124 22.1938C63.124 24.1438 62.2524 25.7712 60.5974 27.1104H64.6615L63.7032 28.767C63.0932 29.8153 62.3382 30.4545 60.7116 30.417L51.4535 30.4545C44.5737 30.4545 40.1904 26.8771 40.1904 22.3697L40.1913 22.3688ZM51.6293 26.7896C55.3726 26.7896 58.5658 24.9279 58.5658 22.3688C58.5658 19.8089 55.4017 17.9473 51.6285 17.9473C47.8827 17.9473 44.6895 19.8089 44.6895 22.3688C44.6895 24.9271 47.8827 26.7896 51.6276 26.7896H51.6293ZM70.8788 27.4995L69.1605 30.4161H64.6607L72.1796 17.4248C72.7604 16.4056 73.6313 15.5915 75.3154 15.4165H76.9987C78.7111 15.5915 79.5528 16.3773 80.1336 17.4248L87.6517 30.4161H83.0652L81.2952 27.4995H70.8788ZM79.6969 24.5829L76.3595 18.5289C76.272 18.3839 76.2137 18.3539 76.0979 18.3539C75.9812 18.3539 75.9229 18.3839 75.837 18.5289L72.5288 24.5829H79.6969ZM109.211 30.4161H105.067L93.3783 20.5939V30.4161H89.2117V15.4165H91.8016C93.0791 15.5915 93.7466 15.9415 94.4724 16.5515L105.045 25.4221V15.4165H109.211V30.4161ZM123.378 30.4161H119.211V18.7498H110.878V15.4165H131.711V18.7498H123.378M134.211 27.4995L132.556 30.4161H128.056L135.575 17.4248C136.155 16.4056 137.025 15.5915 138.71 15.4165H140.393C142.105 15.5915 142.946 16.3773 143.526 17.4248L151.045 30.4161H146.46L144.627 27.4995H134.211ZM143.121 24.5829L139.784 18.5289C139.696 18.3839 139.638 18.3539 139.522 18.3539C139.405 18.3539 139.347 18.3839 139.261 18.5289L135.953 24.5829H143.122H143.121ZM152.091 29.2612L153.108 26.0329C156.009 26.9637 159.087 27.3412 161.874 27.3412C166.431 27.3412 167.562 26.8187 167.562 26.2371C167.562 26.0037 167.417 25.8287 167.04 25.7121C166.576 25.5679 165.327 25.3063 161.582 24.6954C157.461 24.0263 155.573 23.6771 154.21 23.0372C152.846 22.3972 152.003 21.3789 152.003 19.8956C152.003 18.7623 152.555 17.8606 153.455 17.1331C155.052 15.9115 157.751 15.4165 160.683 15.4165C164.486 15.4165 167.678 15.7373 171.22 16.6098L171.539 16.6973L170.697 19.8389C166.75 18.9948 164.543 18.7623 161.525 18.7039C159.406 18.6748 157.954 18.8489 157.171 19.0822C156.735 19.2264 156.561 19.4297 156.561 19.6631C156.561 19.8964 156.707 20.0697 157.143 20.2156C157.607 20.3606 158.391 20.5655 162.454 21.2039C166.837 21.9313 168.289 22.2222 169.508 22.6872C171.162 23.3271 172.15 24.4904 172.15 25.9454C172.15 27.777 170.727 29.1453 168.26 29.9003C166.75 30.367 164.689 30.6278 162.396 30.6278C158.767 30.657 154.936 30.1911 152.468 29.3778L152.091 29.2612Z" fill="#323232"></path>
  </g>
  <defs>
    <linearGradient id="paint0_linear_1780_11881" x1="2951.28" y1="3323.7" x2="1671.85" y2="-349.212" gradientUnits="userSpaceOnUse">
      <stop stop-color="#BE0000"></stop>
      <stop offset="0.3898" stop-color="#DE0000"></stop>
      <stop offset="0.768" stop-color="#F60000"></stop>
      <stop offset="1" stop-color="#FF0000"></stop>
    </linearGradient>
    <linearGradient id="paint1_linear_1780_11881" x1="195.453" y1="190.37" x2="195.453" y2="45.4935" gradientUnits="userSpaceOnUse">
      <stop stop-color="white" stop-opacity="0"></stop>
      <stop offset="0.51203" stop-color="#E0E0E0" stop-opacity="0.262"></stop>
      <stop offset="0.66549" stop-color="#C5C5C5" stop-opacity="0.549"></stop>
      <stop offset="0.82415" stop-color="#B5B5B5" stop-opacity="0.805"></stop>
      <stop offset="1" stop-color="#AFAFAF"></stop>
    </linearGradient>
    <linearGradient id="paint2_linear_1780_11881" x1="20.2339" y1="377.873" x2="1344.38" y2="377.873" gradientUnits="userSpaceOnUse">
      <stop stop-color="white" stop-opacity="0"></stop>
      <stop offset="0.08391" stop-color="#F1F1F1" stop-opacity="0.093"></stop>
      <stop offset="0.24826" stop-color="#D4D4D4" stop-opacity="0.325"></stop>
      <stop offset="0.44531" stop-color="#C0C0C0" stop-opacity="0.555"></stop>
      <stop offset="0.7032" stop-color="#B3B3B3" stop-opacity="0.781"></stop>
      <stop offset="1" stop-color="#AFAFAF"></stop>
    </linearGradient>
    <linearGradient id="paint3_linear_1780_11881" x1="412.267" y1="1097.95" x2="1645.68" y2="1097.95" gradientUnits="userSpaceOnUse">
      <stop stop-color="white" stop-opacity="0"></stop>
      <stop offset="0.28583" stop-color="#EDEDED" stop-opacity="0.282"></stop>
      <stop offset="0.886" stop-color="#BDBDBD" stop-opacity="0.848"></stop>
      <stop offset="1" stop-color="#AFAFAF"></stop>
    </linearGradient>
    <clipPath id="clip0_1780_11881">
      <rect width="173" height="40" fill="white" transform="translate(0.392578)"></rect>
    </clipPath>
  </defs>
</svg>
