<?xml version="1.0" encoding="UTF-8"?>
<svg xmlns="http://www.w3.org/2000/svg" width="124" height="40" viewBox="0 0 124 40" fill="none">
  <path fill-rule="evenodd" clip-rule="evenodd" d="M67.4701 31.3035C65.8912 29.8334 64.0735 28.6452 62.0955 27.7904C60.2445 27.0043 58.256 26.5967 56.2462 26.5914C55.6944 26.5952 55.1437 26.6383 54.598 26.7203C54.0722 26.8005 53.554 26.9238 53.0483 27.089C54.1504 28.7145 55.6248 30.0508 57.3479 30.9858C59.0424 31.8793 60.931 32.3376 62.8449 32.3197C63.591 32.3161 64.3346 32.2337 65.0634 32.0739C65.8859 31.8806 66.6909 31.6189 67.4701 31.2915M71.0531 28.6297C73.3045 26.2401 74.5191 23.051 74.4301 19.763C74.4332 18.2775 74.1567 16.8049 73.615 15.4225C73.0627 14.0256 72.2522 12.7462 71.2263 11.6516C70.1258 10.4103 68.786 9.40584 67.2879 8.69907C65.8544 8.07704 64.3111 7.74992 62.7495 7.73704C61.1878 7.72417 59.6395 8.02581 58.1959 8.62413C56.804 9.2067 55.5458 10.0698 54.4994 11.16C53.3516 12.3268 52.4471 13.7117 51.839 15.2337C51.2184 16.7556 50.9018 18.3852 50.9074 20.0298C50.9059 20.5705 50.9448 21.1106 51.0239 21.6454C51.1143 22.2516 51.2389 22.852 51.3971 23.444C52.1495 23.0562 52.9542 22.7805 53.7858 22.6256C54.7698 22.4375 55.7701 22.3491 56.7717 22.3619C59.297 22.3796 61.7903 22.93 64.09 23.9775C66.6514 25.129 69.0061 26.6968 71.0591 28.6177M71.6861 34.337C69.5488 35.709 67.1304 36.5786 64.6114 36.8806C62.0924 37.1827 59.538 36.9096 57.139 36.0816C55.3932 35.4689 53.7644 34.5616 52.3227 33.3988C50.3289 31.7957 48.7333 29.7496 47.6618 27.4217C46.5676 25.0246 46.0139 22.4146 46.0405 19.778C46.033 17.5502 46.4737 15.3439 47.3363 13.2913C48.242 11.2153 49.5329 9.33126 51.1403 7.73985C52.6539 6.23062 54.4433 5.02864 56.4104 4.19976C58.3852 3.39085 60.5002 2.98331 62.6329 3.00074C64.8057 2.98018 66.9613 3.38753 68.9779 4.19976C73.0893 5.96327 76.3526 9.26834 78.0729 13.4112C78.9293 15.5746 79.3583 17.8847 79.3359 20.2126C79.3437 22.2321 78.997 24.2371 78.3117 26.1358C77.6082 28.0025 76.5676 29.7229 75.2423 31.2106C75.8151 31.4774 76.4161 31.6785 77.0338 31.8101C77.6794 31.9485 78.3383 32.0149 78.9985 32.0079H79.5957V36.5792H79.1687C77.9195 36.5713 76.6778 36.3845 75.4812 36.0246C74.1507 35.6061 72.8693 35.0443 71.6592 34.349M87.0215 17.359H88.5443C91.0047 17.359 92.7604 16.9843 93.8204 16.2349C94.8803 15.4855 95.385 14.2445 95.385 12.5059C95.385 10.9772 94.9102 9.85311 93.9637 9.11272C93.0172 8.37233 91.5481 8.00364 89.5894 8.00364H87.0215V17.359ZM86.9797 32.1009H90.7628C92.9525 32.1009 94.5688 31.6862 95.6119 30.8569C96.654 30.0326 97.1735 28.7586 97.1735 27.026C97.1735 25.1536 96.633 23.7327 95.5522 22.7635C94.4683 21.8013 92.8649 21.3067 90.7748 21.3067H86.9977V32.0979L86.9797 32.1009ZM89.3684 3.50133C92.8918 3.50133 95.5552 4.27469 97.3885 5.81543C99.2218 7.35616 100.127 9.61332 100.127 12.5659C100.152 13.8302 99.843 15.0787 99.2308 16.1839C98.5921 17.2603 97.6869 18.1525 96.6032 18.7738C98.1652 19.219 99.5181 20.2084 100.419 21.5645C101.384 23.0216 101.876 24.7433 101.825 26.4925C101.846 27.9869 101.567 29.4702 101.004 30.8539C100.513 32.1087 99.7366 33.2309 98.7365 34.1307C97.7364 35.0306 96.5407 35.6833 95.2446 36.0366C93.9906 36.4053 92.208 36.5822 89.9178 36.5822H82.3278V3.51332H89.3983L89.3684 3.50133ZM121.019 36.5702H103.928V3.51332H121.04V7.9287H108.705V17.8206H121.04V22.1161H108.705V32.0199H121.04V36.5822L121.019 36.5702Z" fill="#221F1F"></path>
  <path fill-rule="evenodd" clip-rule="evenodd" d="M30.5736 27.4867C31.5549 27.4867 32.4961 27.12 33.19 26.4673C33.8838 25.8145 34.2737 24.9292 34.2737 24.006C34.2795 23.3769 34.1002 22.7585 33.7557 22.2193L26.1489 9.87433C25.9649 8.71199 25.5224 7.59922 24.8503 6.60863C24.1782 5.61803 23.2916 4.77187 22.2485 4.12534C23.7887 3.84955 25.382 4.03143 26.8074 4.64576C28.2329 5.26009 29.4198 6.27643 30.2036 7.55385L37.9737 20.2062C39 21.826 39.3003 23.7629 38.8085 25.5909C38.3167 27.4189 37.0731 28.9883 35.3513 29.9537C33.6295 30.9192 31.5705 31.2016 29.6273 30.739C27.6841 30.2763 26.0159 29.1065 24.9896 27.4867M30.552 21.7668H21.0798L18.348 26.2221H30.552C31.1801 26.2221 31.7824 25.9874 32.2265 25.5696C32.6706 25.1518 32.9201 24.5852 32.9201 23.9944C32.9201 23.4036 32.6706 22.837 32.2265 22.4192C31.7824 22.0015 31.1801 21.7668 30.552 21.7668ZM21.2186 9.93234L23.9937 14.4776C24.8511 12.8437 25.0087 10.9625 24.4338 9.22247C23.859 7.48246 22.5956 6.01665 20.9047 5.12787C19.2138 4.23909 17.2246 3.99525 15.3481 4.44673C13.4716 4.89821 11.8511 6.01052 10.8214 7.55385L3.05436 20.2062C2.26966 21.4843 1.9265 22.9601 2.07233 24.4297C2.21816 25.8992 2.84577 27.2898 3.86838 28.4091C3.9417 27.2381 4.27575 26.0946 4.84888 25.0528C5.42201 24.0109 6.22143 23.094 7.19535 22.3614L14.7928 9.99035C15.1147 9.44146 15.5903 8.98602 16.168 8.67348C17.0167 8.2125 18.0251 8.08707 18.972 8.3247C19.9188 8.56234 20.7268 9.14365 21.2186 9.94104M15.9768 12.8068L20.7068 20.5166H26.1798L20.0685 10.5763C19.7453 10.0818 19.2296 9.72558 18.6314 9.58341C18.0331 9.44124 17.3995 9.52436 16.8654 9.81508C16.3313 10.1058 15.9389 10.5811 15.7718 11.1399C15.6047 11.6987 15.6761 12.2968 15.9707 12.8068M9.73914 26.3323L12.5389 21.7871C10.5687 21.8591 8.70643 22.6526 7.34949 23.9983C5.99254 25.3439 5.24835 27.1351 5.27571 28.9897C5.30307 30.8443 6.09981 32.6154 7.49593 33.9251C8.89205 35.2348 10.777 35.9794 12.7485 36H28.2796C29.846 36.0009 31.374 35.5432 32.6514 34.6902C33.9288 33.8373 34.8924 32.6315 35.4084 31.2401C34.2926 31.7609 33.0732 32.0558 31.8289 32.1057C30.5845 32.1557 29.3428 31.9596 28.184 31.5302H12.9983C12.3318 31.5401 11.675 31.3787 11.0989 31.0632C10.2503 30.603 9.63032 29.845 9.37484 28.9555C9.11937 28.0659 9.24927 27.1174 9.73607 26.3178M15.0025 29.1691L19.7417 21.4419L17.0067 17.0098L10.9108 26.9501C10.602 27.461 10.5204 28.066 10.6836 28.6332C10.8468 29.2005 11.2417 29.6841 11.7822 29.9788C12.3228 30.2734 12.9652 30.3551 13.5695 30.2062C14.1738 30.0572 14.6911 29.6897 15.0087 29.1836" fill="#009AE4"></path>
</svg>
