<?xml version="1.0" encoding="UTF-8"?>
<svg xmlns="http://www.w3.org/2000/svg" width="147" height="40" viewBox="0 0 147 40" fill="none">
  <path d="M1.13523 16.5327C1.13523 18.8518 2.5695 19.8622 5.53529 20.5051L7.84472 20.9644C10.5431 21.5384 11.0779 22.1125 11.0779 23.3754C11.0779 24.8679 9.69226 25.8094 7.18836 25.8094C4.68445 25.8094 3.25017 24.7531 3.08001 22.5947H0.67334C0.67334 25.9242 3.20156 27.853 7.13974 27.853C11.4669 27.853 13.5575 25.7864 13.5575 23.0998C13.5575 20.6888 12.0503 19.5407 9.47347 19.0126L7.06681 18.4845C4.2955 17.9104 3.54189 17.566 3.54189 16.2571C3.54189 14.9253 4.53859 13.938 6.82371 13.938C9.59502 13.938 10.4216 15.132 10.616 16.7164H13.0227C13.0227 13.4558 10.3243 11.8714 6.92095 11.8714C2.93415 11.8714 1.03799 14.0298 1.03799 16.5556M14.6271 12.2617V21.3088C14.6271 25.9242 16.9366 27.8071 20.9963 27.8071C25.056 27.8071 27.3655 25.9012 27.3655 21.3088V12.2617H24.7157V21.6073C24.7157 24.5694 23.3787 25.7175 20.8504 25.7175C18.5896 25.7175 17.2283 24.5005 17.2283 21.6073V12.2617H14.6271ZM29.1158 12.2617V27.3938H31.5224V15.6372L39.2043 27.4167H41.9513V12.2617H39.5447V23.9724L32.0329 12.2617H29.1158ZM57.4366 16.969C57.1692 13.938 54.5438 11.8943 50.8001 11.8943C46.1326 11.8943 43.3127 15.109 43.3127 19.7474C43.3127 25.1664 46.4486 27.7841 50.5813 27.7841C54.1791 27.9448 57.2908 25.3501 57.5096 21.9517H55.03C54.5195 24.3628 53.1095 25.6716 50.7514 25.6716C48.1017 25.6716 45.9624 23.9954 45.9624 20C45.9624 15.8438 47.9558 13.9609 50.7514 13.9609C53.2067 13.9609 54.4465 15.0861 54.9327 16.923L57.4366 16.969ZM58.5549 19.8851C58.5549 25.0516 61.6908 27.853 66.2854 27.853C71.1473 27.853 74.0888 24.5924 74.0888 19.6555C74.0888 14.1905 70.6855 11.8254 66.2854 11.8254C61.8853 11.8254 58.5549 14.6498 58.5549 19.8851ZM61.1803 19.954C61.1803 16.0505 63.3196 13.938 66.4069 13.938C69.2512 13.938 71.512 15.8438 71.512 19.6555C71.512 23.6969 69.4457 25.7175 66.4799 25.7175C63.2224 25.7175 61.1803 23.7887 61.1803 19.954ZM78.0027 14.3283H82.816C84.7122 14.3283 85.7089 15.0401 85.7089 16.7164C85.7089 18.3926 84.7365 19.1504 82.5972 19.1504H78.0027V14.3283ZM75.4502 12.2617V27.3938H78.0027V21.0792H82.4028C84.5177 21.0792 85.2713 21.6762 85.3199 23.3983L85.4415 25.5338C85.4415 26.1538 85.5387 26.7967 85.7332 27.3938H88.4802C88.0912 26.5901 87.8968 25.6946 87.9697 24.799L87.9211 23.1228C87.8725 21.3777 87.4106 20.6199 85.9277 20.0229C87.4349 19.4029 88.3587 17.9563 88.2614 16.4179C88.2614 13.915 86.6327 12.2617 82.9619 12.2617H75.4502ZM89.7929 12.2617V27.3938H92.3698V21.3088H96.8671C100.173 21.3088 101.899 19.5637 101.899 16.7623C101.899 13.8231 99.9787 12.2617 96.9643 12.2617H89.7929ZM92.3698 14.3053H96.3079C98.3986 14.3053 99.3223 15.132 99.3223 16.8082C99.3223 18.4845 98.35 19.3111 96.3079 19.3111H92.3698V14.3053Z" fill="#004346"></path>
  <path d="M125.382 0C113.689 0 104.208 8.95522 104.208 20C104.208 31.0448 113.689 40 125.382 40C137.075 40 146.556 31.0448 146.556 20C146.556 8.95522 137.05 0 125.382 0ZM125.382 29.9885C119.547 29.9885 114.807 25.5109 114.807 20C114.807 14.4891 119.547 10.0115 125.382 10.0115C131.216 10.0115 135.957 14.4891 135.957 20C135.957 25.5109 131.216 29.9885 125.382 29.9885Z" fill="url(#paint0_radial_1780_11894)"></path>
  <defs>
    <radialGradient id="paint0_radial_1780_11894" cx="0" cy="0" r="1" gradientUnits="userSpaceOnUse" gradientTransform="translate(125.372 20) scale(21.1619 19.9888)">
      <stop stop-color="#FFCB05"></stop>
      <stop offset="0.5" stop-color="#FFCB05"></stop>
      <stop offset="0.59" stop-color="#FFCB05" stop-opacity="0.78"></stop>
      <stop offset="0.7" stop-color="#FFCB05" stop-opacity="0.5"></stop>
      <stop offset="0.8" stop-color="#FFCB05" stop-opacity="0.29"></stop>
      <stop offset="0.89" stop-color="#FFCB05" stop-opacity="0.13"></stop>
      <stop offset="0.96" stop-color="#FFCB05" stop-opacity="0.04"></stop>
      <stop offset="1" stop-color="#FFCB05" stop-opacity="0"></stop>
    </radialGradient>
  </defs>
</svg>
